<svg width="27" height="27" viewBox="0 0 27 27" fill="none" xmlns="http://www.w3.org/2000/svg">
<path d="M13.5 2.53125C7.4424 2.53125 2.53125 7.4424 2.53125 13.5C2.53125 19.5576 7.4424 24.4688 13.5 24.4688C19.5576 24.4688 24.4688 19.5576 24.4688 13.5C24.4688 7.4424 19.5576 2.53125 13.5 2.53125ZM18.5625 15.1875H13.5C13.2762 15.1875 13.0616 15.0986 12.9034 14.9404C12.7451 14.7821 12.6562 14.5675 12.6562 14.3438V6.75C12.6562 6.52622 12.7451 6.31161 12.9034 6.15338C13.0616 5.99515 13.2762 5.90625 13.5 5.90625C13.7238 5.90625 13.9384 5.99515 14.0966 6.15338C14.2549 6.31161 14.3438 6.52622 14.3438 6.75V13.5H18.5625C18.7863 13.5 19.0009 13.5889 19.1591 13.7471C19.3174 13.9054 19.4062 14.12 19.4062 14.3438C19.4062 14.5675 19.3174 14.7821 19.1591 14.9404C19.0009 15.0986 18.7863 15.1875 18.5625 15.1875Z" fill="#959595"/>
</svg>
