<svg width="21" height="21" viewBox="0 0 21 21" fill="none" xmlns="http://www.w3.org/2000/svg">
<g clip-path="url(#clip0_6_78)">
<path d="M18.8125 3.50001H16.4792V5.25001C16.4792 5.41854 16.446 5.58542 16.3815 5.74112C16.317 5.89682 16.2224 6.03829 16.1033 6.15746C15.9841 6.27663 15.8426 6.37116 15.6869 6.43565C15.5312 6.50015 15.3644 6.53334 15.1958 6.53334C15.0273 6.53334 14.8604 6.50015 14.7047 6.43565C14.549 6.37116 14.4075 6.27663 14.2884 6.15746C14.1692 6.03829 14.0747 5.89682 14.0102 5.74112C13.9457 5.58542 13.9125 5.41854 13.9125 5.25001V3.50001H7.11665V5.25001C7.11665 5.59037 6.98145 5.91679 6.74077 6.15746C6.5001 6.39813 6.17368 6.53334 5.83332 6.53334C5.49296 6.53334 5.16654 6.39813 4.92587 6.15746C4.6852 5.91679 4.54999 5.59037 4.54999 5.25001V3.50001H2.21665C2.07783 3.49843 1.94011 3.5247 1.81162 3.57728C1.68313 3.62985 1.56649 3.70766 1.4686 3.8061C1.3707 3.90453 1.29354 4.0216 1.24168 4.15038C1.18982 4.27916 1.16431 4.41703 1.16665 4.55584V17.6108C1.16434 17.7472 1.1889 17.8827 1.23896 18.0095C1.28901 18.1364 1.36356 18.2522 1.45836 18.3502C1.55315 18.4483 1.66634 18.5267 1.79144 18.581C1.91655 18.6353 2.05113 18.6644 2.18749 18.6667H18.8125C18.9489 18.6644 19.0834 18.6353 19.2085 18.581C19.3336 18.5267 19.4468 18.4483 19.5416 18.3502C19.6364 18.2522 19.711 18.1364 19.761 18.0095C19.8111 17.8827 19.8356 17.7472 19.8333 17.6108V4.55584C19.8356 4.41948 19.8111 4.284 19.761 4.15713C19.711 4.03027 19.6364 3.91451 19.5416 3.81646C19.4468 3.71841 19.3336 3.64 19.2085 3.5857C19.0834 3.5314 18.9489 3.50229 18.8125 3.50001ZM5.83332 15.1667H4.66665V14H5.83332V15.1667ZM5.83332 12.25H4.66665V11.0833H5.83332V12.25ZM5.83332 9.33334H4.66665V8.16667H5.83332V9.33334ZM9.33332 15.1667H8.16665V14H9.33332V15.1667ZM9.33332 12.25H8.16665V11.0833H9.33332V12.25ZM9.33332 9.33334H8.16665V8.16667H9.33332V9.33334ZM12.8333 15.1667H11.6667V14H12.8333V15.1667ZM12.8333 12.25H11.6667V11.0833H12.8333V12.25ZM12.8333 9.33334H11.6667V8.16667H12.8333V9.33334ZM16.3333 15.1667H15.1667V14H16.3333V15.1667ZM16.3333 12.25H15.1667V11.0833H16.3333V12.25ZM16.3333 9.33334H15.1667V8.16667H16.3333V9.33334Z" fill="black"/>
<path d="M5.83333 5.83335C5.98804 5.83335 6.13642 5.7719 6.24581 5.6625C6.35521 5.5531 6.41667 5.40473 6.41667 5.25002V1.75002C6.41667 1.59531 6.35521 1.44694 6.24581 1.33754C6.13642 1.22815 5.98804 1.16669 5.83333 1.16669C5.67862 1.16669 5.53025 1.22815 5.42085 1.33754C5.31146 1.44694 5.25 1.59531 5.25 1.75002V5.25002C5.25 5.40473 5.31146 5.5531 5.42085 5.6625C5.53025 5.7719 5.67862 5.83335 5.83333 5.83335Z" fill="black"/>
<path d="M15.1667 5.83335C15.3214 5.83335 15.4698 5.7719 15.5792 5.6625C15.6886 5.5531 15.75 5.40473 15.75 5.25002V1.75002C15.75 1.59531 15.6886 1.44694 15.5792 1.33754C15.4698 1.22815 15.3214 1.16669 15.1667 1.16669C15.012 1.16669 14.8636 1.22815 14.7542 1.33754C14.6448 1.44694 14.5834 1.59531 14.5834 1.75002V5.25002C14.5834 5.40473 14.6448 5.5531 14.7542 5.6625C14.8636 5.7719 15.012 5.83335 15.1667 5.83335Z" fill="black"/>
</g>
<defs>
<clipPath id="clip0_6_78">
<rect width="21" height="21" fill="white"/>
</clipPath>
</defs>
</svg>
