<svg width="27" height="27" viewBox="0 0 27 27" fill="none" xmlns="http://www.w3.org/2000/svg">
<path d="M13.5 1.6875C8.84197 1.6875 5.0625 5.08939 5.0625 9.28125C5.0625 16.0312 13.5 25.3125 13.5 25.3125C13.5 25.3125 21.9375 16.0312 21.9375 9.28125C21.9375 5.08939 18.158 1.6875 13.5 1.6875ZM13.5 13.5C12.8325 13.5 12.18 13.3021 11.625 12.9312C11.0699 12.5604 10.6374 12.0333 10.3819 11.4166C10.1265 10.7999 10.0596 10.1213 10.1898 9.46657C10.3201 8.81188 10.6415 8.21052 11.1135 7.73851C11.5855 7.26651 12.1869 6.94507 12.8416 6.81485C13.4963 6.68462 14.1749 6.75146 14.7916 7.00691C15.4083 7.26235 15.9354 7.69493 16.3062 8.24995C16.6771 8.80497 16.875 9.45749 16.875 10.125C16.874 11.0198 16.5181 11.8777 15.8854 12.5104C15.2527 13.1431 14.3948 13.499 13.5 13.5Z" fill="#959595"/>
</svg>
