<svg width="37" height="37" viewBox="0 0 37 37" fill="none" xmlns="http://www.w3.org/2000/svg">
<mask id="mask0_6_16" style="mask-type:luminance" maskUnits="userSpaceOnUse" x="2" y="2" width="33" height="33">
<path d="M13.875 4.625H6.16667C5.75779 4.625 5.36566 4.78743 5.07654 5.07654C4.78743 5.36566 4.625 5.75779 4.625 6.16667V13.875C4.625 14.2839 4.78743 14.676 5.07654 14.9651C5.36566 15.2542 5.75779 15.4167 6.16667 15.4167H13.875C14.2839 15.4167 14.676 15.2542 14.9651 14.9651C15.2542 14.676 15.4167 14.2839 15.4167 13.875V6.16667C15.4167 5.75779 15.2542 5.36566 14.9651 5.07654C14.676 4.78743 14.2839 4.625 13.875 4.625ZM13.875 21.5833H6.16667C5.75779 21.5833 5.36566 21.7458 5.07654 22.0349C4.78743 22.324 4.625 22.7161 4.625 23.125V30.8333C4.625 31.2422 4.78743 31.6343 5.07654 31.9235C5.36566 32.2126 5.75779 32.375 6.16667 32.375H13.875C14.2839 32.375 14.676 32.2126 14.9651 31.9235C15.2542 31.6343 15.4167 31.2422 15.4167 30.8333V23.125C15.4167 22.7161 15.2542 22.324 14.9651 22.0349C14.676 21.7458 14.2839 21.5833 13.875 21.5833ZM30.8333 4.625H23.125C22.7161 4.625 22.324 4.78743 22.0349 5.07654C21.7458 5.36566 21.5833 5.75779 21.5833 6.16667V13.875C21.5833 14.2839 21.7458 14.676 22.0349 14.9651C22.324 15.2542 22.7161 15.4167 23.125 15.4167H30.8333C31.2422 15.4167 31.6343 15.2542 31.9235 14.9651C32.2126 14.676 32.375 14.2839 32.375 13.875V6.16667C32.375 5.75779 32.2126 5.36566 31.9235 5.07654C31.6343 4.78743 31.2422 4.625 30.8333 4.625ZM30.8333 21.5833H23.125C22.7161 21.5833 22.324 21.7458 22.0349 22.0349C21.7458 22.324 21.5833 22.7161 21.5833 23.125V30.8333C21.5833 31.2422 21.7458 31.6343 22.0349 31.9235C22.324 32.2126 22.7161 32.375 23.125 32.375H30.8333C31.2422 32.375 31.6343 32.2126 31.9235 31.9235C32.2126 31.6343 32.375 31.2422 32.375 30.8333V23.125C32.375 22.7161 32.2126 22.324 31.9235 22.0349C31.6343 21.7458 31.2422 21.5833 30.8333 21.5833Z" fill="white" stroke="white" stroke-width="4" stroke-linejoin="round"/>
</mask>
<g mask="url(#mask0_6_16)">
<path d="M0 0H37V37H0V0Z" fill="black"/>
</g>
</svg>
