<svg width="30" height="30" viewBox="0 0 30 30" fill="none" xmlns="http://www.w3.org/2000/svg">
<path d="M15 0.833332C7.17573 0.833332 0.833313 7.17575 0.833313 15C0.833313 22.8242 7.17573 29.1667 15 29.1667C22.8242 29.1667 29.1666 22.8242 29.1666 15C29.1666 7.17575 22.8242 0.833332 15 0.833332Z" stroke="black" stroke-width="1.5" stroke-linecap="round" stroke-linejoin="round"/>
<path d="M4.05054 23.9902C4.05054 23.9902 7.20829 19.9583 15 19.9583C22.7916 19.9583 25.9508 23.9902 25.9508 23.9902M15 15C16.1271 15 17.2081 14.5522 18.0052 13.7552C18.8022 12.9582 19.25 11.8772 19.25 10.75C19.25 9.62283 18.8022 8.54183 18.0052 7.7448C17.2081 6.94777 16.1271 6.5 15 6.5C13.8728 6.5 12.7918 6.94777 11.9947 7.7448C11.1977 8.54183 10.75 9.62283 10.75 10.75C10.75 11.8772 11.1977 12.9582 11.9947 13.7552C12.7918 14.5522 13.8728 15 15 15Z" stroke="black" stroke-width="1.5" stroke-linecap="round" stroke-linejoin="round"/>
</svg>
