<svg width="29" height="29" viewBox="0 0 29 29" fill="none" xmlns="http://www.w3.org/2000/svg">
<path d="M22.8368 5.96283C21.7545 4.86955 20.4653 4.00272 19.0445 3.41289C17.6236 2.82307 16.0995 2.52205 14.5611 2.52741C8.11531 2.52741 2.86184 7.78088 2.86184 14.2267C2.86184 16.2927 3.4049 18.2996 4.42017 20.0705L2.7674 26.1385L8.96531 24.5094C10.6771 25.442 12.6014 25.9378 14.5611 25.9378C21.007 25.9378 26.2605 20.6844 26.2605 14.2385C26.2605 11.1101 25.0445 8.17047 22.8368 5.96283ZM14.5611 23.9545C12.8139 23.9545 11.1021 23.4823 9.60281 22.5969L9.24864 22.3844L5.56531 23.3524L6.54517 19.7635L6.30906 19.3976C5.33835 17.8474 4.82291 16.0557 4.82156 14.2267C4.82156 8.867 9.18962 4.49894 14.5493 4.49894C17.1466 4.49894 19.5903 5.51422 21.4202 7.35589C22.3262 8.25779 23.0443 9.33056 23.5326 10.512C24.021 11.6935 24.2701 12.9601 24.2653 14.2385C24.2889 19.5982 19.9209 23.9545 14.5611 23.9545ZM19.8973 16.6823C19.6021 16.5406 18.1618 15.8323 17.9021 15.726C17.6306 15.6316 17.4417 15.5844 17.241 15.8677C17.0403 16.1628 16.4854 16.8239 16.3202 17.0128C16.1549 17.2135 15.9778 17.2371 15.6827 17.0837C15.3875 16.942 14.4431 16.6232 13.3334 15.6316C12.4598 14.8524 11.8813 13.8962 11.7042 13.601C11.5389 13.3059 11.6806 13.1524 11.8341 12.9989C11.9639 12.8691 12.1292 12.6566 12.2709 12.4913C12.4125 12.326 12.4716 12.1962 12.566 12.0073C12.6604 11.8066 12.6132 11.6413 12.5424 11.4996C12.4716 11.358 11.8813 9.91769 11.6452 9.32741C11.4091 8.76075 11.1611 8.83158 10.9841 8.81977H10.4174C10.2167 8.81977 9.90976 8.89061 9.63823 9.18575C9.37851 9.48089 8.62295 10.1892 8.62295 11.6295C8.62295 13.0698 9.67365 14.4628 9.81531 14.6517C9.95698 14.8524 11.8813 17.8038 14.8091 19.067C15.5056 19.3739 16.0486 19.551 16.4736 19.6809C17.1702 19.9052 17.8077 19.8698 18.3153 19.7989C18.882 19.7163 20.0507 19.0906 20.2868 18.4059C20.5348 17.7212 20.5348 17.1427 20.4521 17.0128C20.3695 16.883 20.1924 16.8239 19.8973 16.6823Z" fill="white"/>
</svg>
